<svg id="图层_1" data-name="图层 1" xmlns="http://www.w3.org/2000/svg" viewBox="0 0 281.79 433.36"><defs><style>.cls-1{fill:#fff;}.cls-1,.cls-3,.cls-4{stroke:#231815;stroke-miterlimit:10;}.cls-2{font-size:12px;font-family:AdobeSongStd-Light-GBpc-EUC-H, Adobe Song Std;}.cls-2,.cls-4{fill:#231815;}.cls-3{fill:none;}</style></defs><rect class="cls-1" x="53.05" y="30.55" width="146.25" height="41.55"/><text class="cls-2" transform="translate(83.44 56.08)">for循环前的语句</text><line class="cls-3" x1="126.18" y1="30.55" x2="126.18" y2="2.11"/><rect class="cls-1" x="52.68" y="172.19" width="146.25" height="43.98"/><text class="cls-2" transform="translate(61.83 198.36)">反转之后的IFXXX字节码</text><line class="cls-3" x1="125.8" y1="139.06" x2="125.8" y2="172.19"/><line class="cls-3" x1="265.28" x2="263.06" y2="424.76"/><polygon class="cls-4" points="262.98 432.51 247.89 411.93 278.06 411.93 262.98 432.51"/><text class="cls-2" transform="translate(269.79 51.48)">字<tspan x="0" y="14.4">节</tspan><tspan x="0" y="28.8">码</tspan><tspan x="0" y="43.2">写</tspan><tspan x="0" y="57.6">入</tspan><tspan x="0" y="72">的</tspan><tspan x="0" y="86.4">顺</tspan><tspan x="0" y="100.8">序</tspan></text><rect class="cls-1" x="50.7" y="247.19" width="148.6" height="36.25"/><text class="cls-2" transform="translate(106.65 270.63)">循环体</text><line class="cls-3" x1="125.8" y1="216.17" x2="125.8" y2="247.19"/><text class="cls-2" transform="translate(131.62 235.85)">Y</text><line class="cls-3" x1="52.31" y1="328.37" x2="17.83" y2="328.37"/><line class="cls-3" x1="18.2" y1="194.69" x2="17.83" y2="328.37"/><line class="cls-3" x1="52.68" y1="194.18" x2="18.2" y2="194.69"/><polygon class="cls-4" points="52.68 194.18 44.03 199.17 44.03 189.19 52.68 194.18"/><text class="cls-2" transform="translate(0 212.08)">循<tspan x="0" y="14.4">环</tspan><tspan x="0" y="28.8">回</tspan><tspan x="0" y="43.2">调</tspan></text><rect class="cls-1" x="54.2" y="373.15" width="144.98" height="36.38"/><text class="cls-2" transform="translate(86.85 396.61)">for循环后的语句</text><line class="cls-3" x1="127.33" y1="409.53" x2="127.33" y2="432.51"/><line class="cls-3" x1="198.93" y1="194.18" x2="230.18" y2="194.69"/><line class="cls-3" x1="230.18" y1="194.69" x2="230.44" y2="391.34"/><line class="cls-3" x1="199.19" y1="391.34" x2="230.44" y2="391.34"/><text class="cls-2" transform="translate(206.71 188.06)">N</text><rect class="cls-1" x="53.05" y="101.11" width="146.25" height="37.84"/><text class="cls-2" transform="translate(95.83 123.48)">初始化语句</text><line class="cls-3" x1="126.18" y1="72.11" x2="126.18" y2="103.66"/><rect class="cls-1" x="52.31" y="308.94" width="146.62" height="35.74"/><line class="cls-3" x1="126.18" y1="283.44" x2="126.18" y2="308.97"/><text class="cls-2" transform="translate(89.35 331.46)">循环结束语句</text></svg>