<svg id="图层_1" data-name="图层 1" xmlns="http://www.w3.org/2000/svg" viewBox="0 0 281.41 300.33"><defs><style>.cls-1{fill:#fff;}.cls-1,.cls-3,.cls-4{stroke:#231815;stroke-miterlimit:10;}.cls-2{font-size:12px;font-family:AdobeSongStd-Light-GBpc-EUC-H, Adobe Song Std;}.cls-2,.cls-4{fill:#231815;}.cls-3{fill:none;}</style></defs><rect class="cls-1" x="52.68" y="28.45" width="146.25" height="41.55"/><text class="cls-2" transform="translate(76.74 53.98)">while循环前的语句</text><line class="cls-3" x1="125.8" y1="28.45" x2="125.8" y2="0.01"/><rect class="cls-1" x="52.68" y="103.13" width="146.25" height="43.98"/><text class="cls-2" transform="translate(61.83 129.3)">反转之后的IFXXX字节码</text><line class="cls-3" x1="125.8" y1="70.01" x2="125.8" y2="103.13"/><line class="cls-3" x1="256.91" y1="0.01" x2="260.66" y2="299.3"/><polygon class="cls-4" points="260.56 299.43 245.47 277 275.64 277 260.56 299.43"/><text class="cls-2" transform="translate(269.41 49.38)">字<tspan x="0" y="14.4">节</tspan><tspan x="0" y="28.8">码</tspan><tspan x="0" y="43.2">写</tspan><tspan x="0" y="57.6">入</tspan><tspan x="0" y="72">的</tspan><tspan x="0" y="86.4">顺</tspan><tspan x="0" y="100.8">序</tspan></text><rect class="cls-1" x="51.07" y="178.13" width="146.25" height="36.25"/><text class="cls-2" transform="translate(107.02 201.57)">循环体</text><line class="cls-3" x1="125.8" y1="147.11" x2="125.8" y2="178.13"/><text class="cls-2" transform="translate(131.62 166.8)">Y</text><line class="cls-3" x1="52.68" y1="196.26" x2="18.2" y2="196.26"/><line class="cls-3" x1="18.2" y1="125.63" x2="18.2" y2="196.26"/><line class="cls-3" x1="52.68" y1="125.12" x2="18.2" y2="125.63"/><polygon class="cls-4" points="52.68 125.12 44.03 130.11 44.03 120.13 52.68 125.12"/><text class="cls-2" transform="translate(0 143.02)">循<tspan x="0" y="14.4">环</tspan><tspan x="0" y="28.8">回</tspan><tspan x="0" y="43.2">调</tspan></text><rect class="cls-1" x="52.68" y="240.07" width="146.25" height="36.38"/><text class="cls-2" transform="translate(76.64 263.53)">while循环后的语句</text><line class="cls-3" x1="125.8" y1="276.45" x2="125.8" y2="299.43"/><line class="cls-3" x1="198.93" y1="125.12" x2="230.18" y2="125.63"/><line class="cls-3" x1="230.18" y1="125.63" x2="230.18" y2="258.53"/><line class="cls-3" x1="198.93" y1="258.53" x2="230.18" y2="258.53"/><text class="cls-2" transform="translate(206.71 119)">N</text></svg>