<svg id="图层_1" data-name="图层 1" xmlns="http://www.w3.org/2000/svg" viewBox="0 0 263.71 300.33"><defs><style>.cls-1{fill:#fff;}.cls-1,.cls-3,.cls-4{stroke:#231815;stroke-miterlimit:10;}.cls-2{font-size:12px;font-family:AdobeSongStd-Light-GBpc-EUC-H, Adobe Song Std;}.cls-2,.cls-4{fill:#231815;}.cls-3{fill:none;}</style></defs><rect class="cls-1" x="34.98" y="28.45" width="146.25" height="41.55"/><text class="cls-2" transform="translate(50.94 53.5)">do...while循环前的语句</text><line class="cls-3" x1="108.1" y1="28.45" x2="108.1" y2="0.01"/><rect class="cls-1" x="34.98" y="171.32" width="146.25" height="43.98"/><text class="cls-2" transform="translate(79.26 197.49)">IFXXX字节码</text><line class="cls-3" x1="108.1" y1="70.01" x2="108.1" y2="103.13"/><line class="cls-3" x1="239.21" y1="0.01" x2="242.96" y2="299.3"/><polygon class="cls-4" points="242.85 299.43 227.77 277 257.94 277 242.85 299.43"/><text class="cls-2" transform="translate(251.71 49.38)">字<tspan x="0" y="14.4">节</tspan><tspan x="0" y="28.8">码</tspan><tspan x="0" y="43.2">写</tspan><tspan x="0" y="57.6">入</tspan><tspan x="0" y="72">的</tspan><tspan x="0" y="86.4">顺</tspan><tspan x="0" y="100.8">序</tspan></text><rect class="cls-1" x="34.97" y="102.51" width="146.25" height="36.25"/><text class="cls-2" transform="translate(90.93 125.95)">循环体</text><line class="cls-3" x1="108.1" y1="139.53" x2="108.1" y2="170.55"/><text class="cls-2" transform="translate(14.19 192.08)">Y</text><line class="cls-3" x1="34.98" y1="196.26" x2="0.5" y2="196.26"/><line class="cls-3" x1="0.5" y1="120.63" x2="0.5" y2="196.26"/><line class="cls-3" x1="34.98" y1="120.63" x2="0.5" y2="120.63"/><polygon class="cls-4" points="34.98 120.13 26.33 125.12 26.33 115.14 34.98 120.13"/><rect class="cls-1" x="34.98" y="240.07" width="146.25" height="36.38"/><text class="cls-2" transform="translate(49.77 263.53)">do...while循环后的语句</text><line class="cls-3" x1="108.1" y1="276.45" x2="108.1" y2="299.43"/><text class="cls-2" transform="translate(111.3 231.44)">N</text><line class="cls-3" x1="108.1" y1="215.3" x2="108.1" y2="240.07"/></svg>