<svg id="图层_1" data-name="图层 1" xmlns="http://www.w3.org/2000/svg" viewBox="0 0 338.88 385.63"><defs><style>.cls-1{fill:#fff;}.cls-1,.cls-3,.cls-4{stroke:#231815;stroke-miterlimit:10;}.cls-2{font-size:12px;font-family:AdobeSongStd-Light-GBpc-EUC-H, Adobe Song Std;}.cls-2,.cls-3{fill:#231815;}.cls-4{fill:none;}</style></defs><rect class="cls-1" x="61.88" y="27.5" width="147.5" height="46.25"/><text class="cls-2" transform="translate(82.19 53.69)">if...else结构前的语句</text><rect class="cls-1" x="61.88" y="106.88" width="147.5" height="32.5"/><text class="cls-2" transform="translate(102.19 127.04)">IFXXX字节码</text><line class="cls-3" x1="135.63" y1="73.75" x2="135.63" y2="106.88"/><rect class="cls-1" x="61.88" y="176.25" width="147.5" height="38.75"/><text class="cls-2" transform="translate(94.1 201)">判断失败的语句</text><line class="cls-4" x1="135.63" y1="139.38" x2="135.63" y2="176.25"/><text class="cls-2" transform="translate(142.5 155.63)">N</text><rect class="cls-1" x="61.88" y="249.38" width="147.5" height="38.13"/><text class="cls-2" transform="translate(94.67 272.77)">判断成功的语句</text><line class="cls-4" x1="209.38" y1="123.13" x2="265.63" y2="123.13"/><line class="cls-4" x1="265.63" y1="268.44" x2="265.63" y2="123.13"/><line class="cls-4" x1="265.63" y1="268.44" x2="209.38" y2="268.44"/><text class="cls-2" transform="translate(226.35 116.75) scale(0.93 1)">Y</text><rect class="cls-1" x="61.88" y="320.63" width="147.5" height="40"/><text class="cls-2" transform="translate(82.54 345.37)">if...else结构之后的语句</text><line class="cls-4" x1="61.88" y1="195.79" x2="21.25" y2="195.63"/><line class="cls-4" x1="20.63" y1="340.63" x2="21.25" y2="195.63"/><line class="cls-4" x1="61.32" y1="340.71" x2="20.69" y2="340.55"/><line class="cls-4" x1="135.63" y1="287.5" x2="135.63" y2="320.63"/><line class="cls-4" x1="135.63" y1="27.5" x2="135.63"/><line class="cls-4" x1="135.63" y1="360.63" x2="135.63" y2="385.63"/><text class="cls-2" transform="translate(0 211.88)">语<tspan x="0" y="14.4">句</tspan><tspan x="0" y="28.8">结</tspan><tspan x="0" y="43.2">束</tspan><tspan x="0" y="57.6">强</tspan><tspan x="0" y="72">制</tspan><tspan x="0" y="86.4">跳</tspan><tspan x="0" y="100.8">转</tspan></text><line class="cls-4" x1="314.38" x2="318.13" y2="377.5"/><polygon class="cls-3" points="318.02 377.67 302.93 349.38 333.11 349.38 318.02 377.67"/><text class="cls-2" transform="translate(326.88 49.38)">字<tspan x="0" y="14.4">节</tspan><tspan x="0" y="28.8">码</tspan><tspan x="0" y="43.2">写</tspan><tspan x="0" y="57.6">入</tspan><tspan x="0" y="72">的</tspan><tspan x="0" y="86.4">顺</tspan><tspan x="0" y="100.8">序</tspan></text></svg>