<svg xmlns="http://www.w3.org/2000/svg" xmlns:xlink="http://www.w3.org/1999/xlink" viewBox="0 0 1024 1024" class="icon icon-github"><path d="M800.768 237.216h-51.264l44.832-44.832c19.232-19.232 19.232-57.664 0-76.864s-57.664-19.232-76.864 0l-128.128 121.728h-153.76L307.456 115.52c-19.232-19.232-57.664-19.232-76.864 0s-19.232 57.664 0 76.864l44.832 44.832H224.16C134.464 237.216 64 307.68 64 397.376v345.952c0 96.096 70.464 166.56 160.16 166.56h570.144c89.696 0 160.16-70.464 160.16-160.16V397.376c6.4-89.696-64.064-160.16-153.76-160.16z m44.864 506.112a57.44 57.44 0 0 1-57.664 57.664H230.624a57.44 57.44 0 0 1-57.664-57.664v-339.52c0-32.032 25.632-57.664 57.664-57.664h557.344c32.032 0 57.664 25.632 57.664 57.664v339.52zM345.952 461.44a57.44 57.44 0 0 0-57.664 57.664v57.664c0 32.032 25.632 57.664 57.664 57.664s57.664-25.632 57.664-57.664v-57.664a57.44 57.44 0 0 0-57.664-57.664z m333.12 0a57.44 57.44 0 0 0-57.664 57.664v57.664c0 32.032 25.632 57.664 57.664 57.664s57.664-25.632 57.664-57.664v-57.664a57.44 57.44 0 0 0-57.664-57.664z"></path></svg>